# File created by Blade
# Date/Time:  Tue Jan 27 18:50:05 2015
# Frame Rate: 120.000 fps
#------------------------------------------------------
:FULLY-SPECIFIED
:DEGREES
3004
root -0.208003 32.506348 -6.974316 42.220036 -55.602720 -39.774273
Spine 9.594003 13.442756 2.667516
Head 2.171431 8.515157 14.430506
LeftShoulder -7.280050 1.119322 21.567629
LeftArm 48.596317 -14.844421 -67.989311
LeftForeArm -26.350699 -0.000000 119.723653
LeftHand -24.742779 -0.000000 -3.464753
LeftHandThumb1 -26.253704 0.000000 33.147579
RightShoulder 12.055279 28.933755 -11.038926
RightArm 46.292256 -47.050561 79.385203
RightForeArm -14.257685 -0.000000 52.380132
RightHand -10.065750 0.000000 -3.523080
RightHandThumb1 -24.326973 -0.000000 -32.862282
LeftUpLeg -19.270876 18.520026 6.165789
LeftLeg 25.110308 -0.000000 -0.000000
LeftFoot -34.953004 23.678355 -29.732547
LeftToeBase 8.173345 -0.000000 -0.000000
RightUpLeg -51.442841 -43.480078 -2.794070
RightLeg 80.034378 -0.000000 -0.000000
RightFoot -27.117109 -29.575342 18.251564
RightToeBase 10.954059 -0.000000 -0.000000
3005
root -0.227386 32.519644 -7.007490 41.882323 -55.319943 -39.399539
Spine 9.549214 13.220442 2.350372
Head 1.744708 8.309938 14.094642
LeftShoulder -7.100910 0.891459 21.615446
LeftArm 49.000016 -14.542021 -67.657639
LeftForeArm -26.113754 0.000000 119.200677
LeftHand -24.749366 -0.000000 -3.384316
LeftHandThumb1 -26.253704 0.000000 33.147579
RightShoulder 12.150801 29.164293 -11.238818
RightArm 45.928202 -46.563081 80.102181
RightForeArm -14.136972 -0.000000 51.865402
RightHand -9.996805 -0.000000 -3.784539
RightHandThumb1 -24.326973 -0.000000 -32.862282
LeftUpLeg -19.381048 18.143331 6.352970
LeftLeg 25.404170 -0.000000 -0.000000
LeftFoot -34.699447 23.189686 -29.773650
LeftToeBase 8.223985 -0.000000 -0.000000
RightUpLeg -50.702413 -43.118528 -3.317807
RightLeg 80.107182 -0.000000 -0.000000
RightFoot -27.042031 -29.510868 18.210010
RightToeBase 10.944555 -0.000000 -0.000000
3006
root -0.249628 32.535372 -7.046063 41.571166 -55.007220 -39.046704
Spine 9.510151 13.007803 2.037232
Head 1.302223 8.137620 13.801868
LeftShoulder -6.936633 0.655697 21.698346
LeftArm 49.337744 -14.167671 -67.337528
LeftForeArm -25.783805 -0.000000 118.730914
LeftHand -24.668478 -0.000000 -3.250554
LeftHandThumb1 -26.253704 0.000000 33.147579
RightShoulder 12.208224 29.359903 -11.436770
RightArm 45.666912 -46.102373 80.715914
RightForeArm -13.919472 0.000000 51.360744
RightHand -10.015855 -0.000000 -3.899016
RightHandThumb1 -24.326973 -0.000000 -32.862282
LeftUpLeg -19.519778 17.788755 6.564119
LeftLeg 25.724642 -0.000000 -0.000000
LeftFoot -34.381218 22.714602 -29.769122
LeftToeBase 8.122215 -0.000000 -0.000000
RightUpLeg -49.953390 -42.715481 -3.801864
RightLeg 80.184080 -0.000000 -0.000000
RightFoot -26.980024 -29.487419 18.216313
RightToeBase 10.916348 -0.000000 -0.000000
3007
root -0.271104 32.550696 -7.085433 41.258923 -54.713612 -38.695447
Spine 9.479776 12.827697 1.698502
Head 0.826973 7.879071 13.437367
LeftShoulder -6.746356 0.443733 21.802883
LeftArm 49.643590 -13.779537 -67.063235
LeftForeArm -25.411807 0.000000 118.324336
LeftHand -24.620625 0.000000 -3.478098
LeftHandThumb1 -26.253704 0.000000 33.147579
RightShoulder 12.246959 29.594704 -11.552373
RightArm 45.480068 -45.719240 81.173420
RightForeArm -13.685725 -0.000000 50.791215
RightHand -9.971725 -0.000000 -4.027354
RightHandThumb1 -24.326973 -0.000000 -32.862282
LeftUpLeg -19.654045 17.435658 6.764729
LeftLeg 26.047774 -0.000000 -0.000000
LeftFoot -34.110079 22.197373 -29.873866
LeftToeBase 7.995813 -0.000000 -0.000000
RightUpLeg -49.194191 -42.255531 -4.309857
RightLeg 80.260501 -0.000000 -0.000000
RightFoot -26.901823 -29.487299 18.240271
RightToeBase 10.874594 -0.000000 -0.000000
3008
root -0.297864 32.564235 -7.122786 40.884381 -54.429874 -38.293423
Spine 9.479496 12.633628 1.325633
Head 0.372680 7.627993 13.104400
LeftShoulder -6.571729 0.212245 21.910852
LeftArm 49.850643 -13.336286 -66.782859
LeftForeArm -24.874331 -0.000000 118.005936
LeftHand -24.503462 -0.000000 -3.533645
LeftHandThumb1 -26.253704 0.000000 33.147579
RightShoulder 12.270902 29.756811 -11.681029
RightArm 45.387576 -45.371998 81.543103
RightForeArm -13.473535 -0.000000 50.241501
RightHand -9.867934 -0.000000 -4.105043
RightHandThumb1 -24.326973 -0.000000 -32.862282
LeftUpLeg -19.739189 17.135939 6.912742
LeftLeg 26.277337 -0.000000 -0.000000
LeftFoot -33.765424 21.798182 -29.763942
LeftToeBase 7.805107 -0.000000 -0.000000
RightUpLeg -48.382556 -41.794966 -4.887405
RightLeg 80.377672 -0.000000 -0.000000
RightFoot -26.789707 -29.469976 18.211518
RightToeBase 10.779967 -0.000000 -0.000000
3009
root -0.322947 32.578676 -7.161673 40.556398 -54.100058 -37.912248
Spine 9.445158 12.432304 0.983742
Head -0.071095 7.497926 12.705348
LeftShoulder -6.437993 0.108207 22.009186
LeftArm 50.165673 -12.802694 -66.479100
LeftForeArm -24.215247 -0.000000 117.660442
LeftHand -24.382497 -0.000000 -3.321479
LeftHandThumb1 -26.253704 0.000000 33.147579
RightShoulder 12.238008 29.870365 -11.814018
RightArm 45.348822 -45.073685 81.805168
RightForeArm -13.222415 -0.000000 49.720128
RightHand -9.799610 -0.000000 -4.218082
RightHandThumb1 -24.326973 -0.000000 -32.862282
LeftUpLeg -19.860002 16.846267 7.068037
LeftLeg 26.450270 -0.000000 -0.000000
LeftFoot -33.559959 21.439247 -29.828744
LeftToeBase 7.892143 -0.000000 -0.000000
RightUpLeg -47.611711 -41.331055 -5.388914
RightLeg 80.486888 -0.000000 -0.000000
RightFoot -26.619514 -29.475334 18.220300
RightToeBase 10.924816 -0.000000 -0.000000
3010
root -0.347403 32.592469 -7.202491 40.234807 -53.738650 -37.510640
Spine 9.396430 12.175433 0.642732
Head -0.504545 7.352766 12.281278
LeftShoulder -6.288374 -0.098482 22.132420
LeftArm 50.313397 -12.305879 -66.332674
LeftForeArm -23.954429 -0.000000 117.379894
LeftHand -24.308390 -0.000000 -3.635013
LeftHandThumb1 -26.253704 0.000000 33.147579
RightShoulder 12.272897 30.024688 -11.903797
RightArm 45.313394 -44.829516 81.970957
RightForeArm -12.911011 -0.000000 49.235895
RightHand -9.725902 -0.000000 -4.435670
RightHandThumb1 -24.326973 -0.000000 -32.862282
LeftUpLeg -20.007835 16.607323 7.187129
LeftLeg 26.559339 -0.000000 -0.000000
LeftFoot -33.282742 21.077821 -29.853093
LeftToeBase 7.574691 -0.000000 -0.000000
RightUpLeg -46.865199 -40.883146 -5.853224
RightLeg 80.575301 -0.000000 -0.000000
RightFoot -26.482829 -29.530645 18.232727
RightToeBase 11.187404 -0.000000 -0.000000
3011
root -0.371236 32.606771 -7.242746 39.954091 -53.338140 -37.125003
Spine 9.322118 11.902588 0.342457
Head -0.931976 7.181748 11.837861
LeftShoulder -6.190515 -0.197980 22.190505
LeftArm 50.539626 -11.785386 -66.067690
LeftForeArm -23.703765 -0.000000 117.085317
LeftHand -24.136222 -0.000000 -3.746145
LeftHandThumb1 -26.253704 0.000000 33.147579
RightShoulder 12.287127 30.146756 -11.995399
RightArm 45.336665 -44.609011 82.051871
RightForeArm -12.580347 -0.000000 48.745069
RightHand -9.594798 -0.000000 -4.310446
RightHandThumb1 -24.326973 -0.000000 -32.862282
LeftUpLeg -20.170625 16.367379 7.306155
LeftLeg 26.583397 -0.000000 -0.000000
LeftFoot -33.187095 20.843193 -29.985963
LeftToeBase 7.785992 -0.000000 -0.000000
RightUpLeg -46.142416 -40.446742 -6.262136
RightLeg 80.654161 -0.000000 -0.000000
RightFoot -26.260116 -29.593946 18.115694
RightToeBase 11.011667 -0.000000 -0.000000
